<?xml version="1.0" encoding="utf-8"?>
<!-- Generator: Adobe Illustrator 21.0.0, SVG Export Plug-In . SVG Version: 6.00 Build 0)  -->
<svg version="1.1" id="Layer_1" xmlns="http://www.w3.org/2000/svg" xmlns:xlink="http://www.w3.org/1999/xlink" x="0px" y="0px"
	 viewBox="0 0 6.4 6.4" style="enable-background:new 0 0 6.4 6.4;" xml:space="preserve">
<style type="text/css">
	.st0{fill:#FFFFFF;}
</style>
<path class="st0" d="M3.6,3.2l2.8-2.8c0.1-0.1,0.1-0.3,0-0.4C6.3,0,6.1,0,6,0.1L3.2,2.8L0.5,0.1C0.4,0,0.2,0,0.1,0.1
	C0,0.2,0,0.4,0.1,0.5l2.8,2.8L0.1,6C0,6.1,0,6.3,0.1,6.4c0.1,0.1,0.1,0.1,0.2,0.1c0.1,0,0.1,0,0.2-0.1l2.8-2.8L6,6.4
	C6,6.4,6.1,6.4,6.2,6.4c0.1,0,0.1,0,0.2-0.1c0.1-0.1,0.1-0.3,0-0.4L3.6,3.2z"/>
</svg>
